<svg xmlns="http://www.w3.org/2000/svg" width="180" height="180" viewBox="0 0 180 180" role="img" aria-label="Temporary speaker thumbnail">
  <rect width="180" height="180" rx="28" fill="#f8fafc"/>
  <circle cx="90" cy="72" r="38" fill="#f1c3a0"/>
  <path d="M51 64c3-26 24-40 48-38 21 2 34 17 35 43-18-8-33-8-49-4-13 3-23 3-34-1Z" fill="#3f2f2a"/>
  <path d="M42 153c9-30 29-45 48-45s39 15 48 45z" fill="#172033"/>
  <path d="M68 153l22-34 22 34z" fill="#ffffff"/>
  <path d="M87 123h6l5 30H82z" fill="#b91c1c"/>
  <circle cx="77" cy="73" r="4" fill="#26364a"/>
  <circle cx="103" cy="73" r="4" fill="#26364a"/>
  <path d="M80 92c8 6 13 6 20 0" stroke="#9f4a2e" stroke-width="4" stroke-linecap="round" fill="none"/>
</svg>
