<svg xmlns="http://www.w3.org/2000/svg" width="180" height="180" viewBox="0 0 180 180" role="img" aria-label="Temporary speaker thumbnail">
  <rect width="180" height="180" rx="28" fill="#eef6ff"/>
  <circle cx="90" cy="72" r="38" fill="#d6aa82"/>
  <path d="M50 68c5-31 30-48 61-35 18 8 26 23 23 47-15-14-30-20-48-17-14 2-25 5-36 5Z" fill="#1f2937"/>
  <path d="M42 153c9-30 29-45 48-45s39 15 48 45z" fill="#24364a"/>
  <path d="M68 153l22-34 22 34z" fill="#f8fafc"/>
  <rect x="72" y="70" width="16" height="7" rx="3" fill="#26364a"/>
  <rect x="93" y="70" width="16" height="7" rx="3" fill="#26364a"/>
  <path d="M81 92c7 5 13 5 20 0" stroke="#8b4b2f" stroke-width="4" stroke-linecap="round" fill="none"/>
</svg>
